<svg width="24" height="25" viewBox="0 0 24 25" fill="none" xmlns="http://www.w3.org/2000/svg">
<rect y="0.549774" width="24" height="24" rx="12" fill="#353131" fill-opacity="0.24"/>
<path fill-rule="evenodd" clip-rule="evenodd" d="M12 6.54977C11.7239 6.54977 11.5 6.77363 11.5 7.04977V12.0498H6.5C6.22386 12.0498 6 12.2736 6 12.5498C6 12.8259 6.22386 13.0498 6.5 13.0498H11.5V18.0498C11.5 18.3259 11.7239 18.5498 12 18.5498C12.2762 18.5498 12.5 18.3259 12.5 18.0498V13.0498H17.5C17.7761 13.0498 18 12.8259 18 12.5498C18 12.2736 17.7761 12.0498 17.5 12.0498H12.5V7.04977C12.5 6.77363 12.2762 6.54977 12 6.54977Z" fill="#353131"/>
</svg>
